<svg width="30" height="30" viewBox="0 0 30 30" fill="none" xmlns="http://www.w3.org/2000/svg">
<path d="M15 14.2313C13.9692 14.2313 13.0862 13.8638 12.3512 13.1288C11.6162 12.3938 11.2492 11.5113 11.25 10.4813C11.2508 9.45127 11.6179 8.56793 12.3512 7.83127C13.0846 7.0946 13.9675 6.72835 15 6.73252C16.0325 6.73668 16.9154 7.10335 17.6488 7.83252C18.3821 8.56168 18.7492 9.44502 18.75 10.4825C18.7508 11.52 18.3838 12.4025 17.6488 13.13C16.9138 13.8575 16.0308 14.2238 15 14.2313ZM6.25 21.9725V21.2125C6.25 20.6967 6.4 20.2142 6.7 19.765C7.00083 19.315 7.405 18.9659 7.9125 18.7175C9.0925 18.1517 10.2733 17.7275 11.455 17.445C12.6358 17.1617 13.8175 17.02 15 17.02C16.1825 17.02 17.3646 17.1617 18.5462 17.445C19.7279 17.7284 20.9079 18.1525 22.0863 18.7175C22.5946 18.9659 22.9988 19.315 23.2987 19.765C23.5996 20.2142 23.75 20.6967 23.75 21.2125V21.9725C23.75 22.3392 23.6254 22.6475 23.3763 22.8975C23.1271 23.1459 22.8188 23.27 22.4513 23.27H7.55C7.1825 23.27 6.87417 23.1454 6.625 22.8963C6.37583 22.6471 6.25083 22.34 6.25 21.9725ZM7.5 22.02H22.5V21.2113C22.5 20.9346 22.4104 20.6742 22.2312 20.43C22.0529 20.1867 21.8058 19.9809 21.49 19.8125C20.4617 19.3142 19.4008 18.9325 18.3075 18.6675C17.2142 18.4025 16.1117 18.27 15 18.27C13.8883 18.27 12.7858 18.4025 11.6925 18.6675C10.5992 18.9325 9.53833 19.3142 8.51 19.8125C8.19333 19.9809 7.94625 20.1867 7.76875 20.43C7.58958 20.6742 7.5 20.935 7.5 21.2125V22.02ZM15 12.9813C15.6875 12.9813 16.2762 12.7363 16.7663 12.2463C17.2563 11.7563 17.5008 11.1675 17.5 10.48C17.4992 9.79252 17.2546 9.20418 16.7663 8.71502C16.2779 8.22585 15.6892 7.98085 15 7.98002C14.3108 7.97918 13.7225 8.22418 13.235 8.71502C12.7475 9.20585 12.5025 9.79418 12.5 10.48C12.4975 11.1659 12.7425 11.7546 13.235 12.2463C13.7275 12.7379 14.3158 12.9825 15 12.98" fill="#1E1E1E"/>
</svg>
