<svg width="150" height="150" viewBox="0 0 150 150" fill="none" xmlns="http://www.w3.org/2000/svg">
<path d="M85.8607 57.7645V14H44.8838C42.7948 14.0062 40.7931 14.8295 39.316 16.2902C37.8388 17.7509 37.0062 19.7302 37 21.7959V127.204C37.0062 129.27 37.8388 131.249 39.316 132.71C40.7931 134.171 42.7948 134.994 44.8838 135H133.116C135.205 134.994 137.207 134.171 138.684 132.71C140.161 131.249 140.994 129.27 141 127.204V57.7645H85.8607Z" fill="#6334FA"/>
<path d="M30.2071 119C25.4347 118.972 20.8095 117.357 17.0712 114.412C13.3329 111.467 10.6975 107.364 9.58629 102.757C8.4751 98.1502 8.95239 93.3066 10.9418 89.0009C12.9312 84.6952 16.3179 81.1759 20.5602 79.006C20.723 73.0607 22.8053 67.3245 26.5003 62.6423C30.1953 57.9602 35.3076 54.5797 41.0842 52.9987C46.8608 51.4178 52.9962 51.72 58.5867 53.8609C64.1771 56.0018 68.9271 59.8682 72.1368 64.8905C74.6387 63.9188 77.296 63.4009 79.9823 63.3613C84.7059 63.3494 89.3092 64.8389 93.1181 67.6118C96.927 70.3848 99.7412 74.2953 101.149 78.7708C104.718 80.5282 107.719 83.2426 109.814 86.6063C111.909 89.9701 113.012 93.8488 113 97.8032C113.009 102.891 111.172 107.812 107.825 111.666C104.478 115.519 99.8442 118.048 94.7727 118.788V119H30.2071Z" fill="#6334FF"/>
<path d="M98.5411 81.0039C97.8636 78.183 96.5427 75.5539 94.6801 73.319C92.8175 71.084 90.4629 69.3028 87.7974 68.1124C85.1319 66.922 82.2267 66.3542 79.3053 66.4526C76.3839 66.551 73.5242 67.313 70.9463 68.68C68.4365 63.6985 64.306 59.7027 59.223 57.339C54.14 54.9753 48.4018 54.3821 42.9368 55.6552C37.4717 56.9283 32.5995 59.9934 29.1082 64.3545C25.617 68.7156 23.7109 74.1177 23.6985 79.6869C23.6985 80.0867 23.6985 80.51 23.6985 80.9099C19.7159 82.4383 16.3975 85.3002 14.3177 89C12.2378 92.6998 11.5275 97.0047 12.3097 101.169C13.0919 105.334 15.3173 109.096 18.6007 111.804C21.8841 114.513 26.0188 115.997 30.289 116H91.7847C96.0263 115.98 100.129 114.499 103.392 111.81C106.655 109.122 108.875 105.392 109.673 101.259C110.471 97.1262 109.797 92.8466 107.767 89.152C105.736 85.4575 102.475 82.5773 98.5411 81.0039Z" fill="white"/>
<path opacity="0.6" d="M92 53H141L92 14V53Z" fill="black"/>
<path d="M92 53H141L92 14V53Z" fill="#6334FF"/>
<path d="M55.5 91C57.9853 91 60 88.9853 60 86.5C60 84.0147 57.9853 82 55.5 82C53.0147 82 51 84.0147 51 86.5C51 88.9853 53.0147 91 55.5 91Z" fill="#6334FA"/>
<path d="M57.1892 88H54.7892L52 100H60L57.1892 88Z" fill="#6334FA"/>
</svg>
