<svg width="35" height="35" viewBox="0 0 35 35" fill="none" xmlns="http://www.w3.org/2000/svg">
<path d="M6.67777 12.3885L5.81297 10.8923C5.61821 10.5601 5.29995 10.3184 4.92765 10.2199C4.55534 10.1215 4.15921 10.1743 3.82571 10.3669C3.49221 10.5594 3.24841 10.8761 3.14751 11.2477C3.04661 11.6194 3.0968 12.0159 3.28714 12.3506L5.83922 16.7708C6.03262 17.1058 6.35114 17.3502 6.72473 17.4503C7.09831 17.5504 7.49636 17.498 7.83131 17.3046L12.2515 14.7525C12.5837 14.5577 12.8254 14.2395 12.9239 13.8672C13.0223 13.4949 12.9695 13.0987 12.7769 12.7652C12.5844 12.4317 12.2677 12.1879 11.8961 12.087C11.5244 11.9861 11.128 12.0363 10.7932 12.2267L9.66443 12.8785C10.6456 10.9449 12.217 9.37387 14.151 8.39319C16.0849 7.41251 18.2808 7.07311 20.4206 7.42417C22.5604 7.77522 24.5327 8.79851 26.0519 10.3457C27.5711 11.8929 28.5582 13.8837 28.87 16.0295C29.1819 18.1753 28.8024 20.3647 27.7866 22.2804C26.7707 24.1961 25.1712 25.7385 23.2199 26.6842C21.2687 27.6298 19.0669 27.9296 16.9339 27.5401C14.8008 27.1505 12.8472 26.0918 11.3561 24.5175C11.09 24.2367 10.7233 24.0731 10.3365 24.0627C9.94982 24.0523 9.57481 24.196 9.29402 24.4621C9.01322 24.7282 8.84963 25.0949 8.83924 25.4816C8.82884 25.8684 8.9725 26.2434 9.2386 26.5242C10.7331 28.1025 12.5961 29.2849 14.6604 29.9653C16.7248 30.6458 18.9258 30.8028 21.0658 30.4225C23.2058 30.0421 25.2179 29.1363 26.9214 27.7862C28.6248 26.4361 29.9663 24.6841 30.8254 22.6875C31.6845 20.6909 32.0343 18.5122 31.8433 16.347C31.6524 14.1819 30.9267 12.098 29.7315 10.2826C28.5362 8.46713 26.9088 6.97695 24.9954 5.94584C23.082 4.91472 20.9424 4.37496 18.7688 4.375C16.1887 4.37427 13.6656 5.13402 11.5148 6.55929C9.36408 7.98455 7.68258 10.0121 6.67777 12.3885Z" fill="#F8BD00"/>
<path d="M18.7688 10.2084C19.1555 10.2084 19.5265 10.362 19.8 10.6355C20.0734 10.909 20.2271 11.2799 20.2271 11.6667V16.8963L22.7165 19.3857C22.9821 19.6607 23.1291 20.0291 23.1258 20.4115C23.1225 20.7938 22.9691 21.1596 22.6987 21.43C22.4283 21.7004 22.0625 21.8537 21.6802 21.8571C21.2978 21.8604 20.9294 21.7134 20.6544 21.4477L17.7377 18.5311C17.4642 18.2577 17.3105 17.8868 17.3104 17.5V11.6667C17.3104 11.2799 17.4641 10.909 17.7376 10.6355C18.0111 10.362 18.382 10.2084 18.7688 10.2084Z" fill="#F8BD00"/>
</svg>
