<svg width="30" height="30" viewBox="0 0 30 30" fill="none" xmlns="http://www.w3.org/2000/svg">
<path opacity="0.5" d="M2.5 15C2.5 10.2863 2.5 7.92875 3.965 6.465C5.43 5.00125 7.78625 5 12.5 5H17.5C22.2138 5 24.5713 5 26.035 6.465C27.4988 7.93 27.5 10.2863 27.5 15C27.5 19.7137 27.5 22.0712 26.035 23.535C24.57 24.9987 22.2138 25 17.5 25H12.5C7.78625 25 5.42875 25 3.965 23.535C2.50125 22.07 2.5 19.7137 2.5 15Z" stroke="black" stroke-width="2.1875"/>
<path d="M10 14.4795C10.1381 14.4795 10.2705 14.5342 10.3682 14.6318C10.4658 14.7295 10.5205 14.8619 10.5205 15C10.5205 15.1381 10.4658 15.2705 10.3682 15.3682C10.2705 15.4658 10.1381 15.5205 10 15.5205C9.86187 15.5205 9.72951 15.4658 9.63184 15.3682C9.53416 15.2705 9.47949 15.1381 9.47949 15C9.47949 14.8619 9.53416 14.7295 9.63184 14.6318C9.72951 14.5342 9.86187 14.4795 10 14.4795ZM15 14.4795C15.1381 14.4795 15.2705 14.5342 15.3682 14.6318C15.4658 14.7295 15.5205 14.8619 15.5205 15C15.5205 15.1381 15.4658 15.2705 15.3682 15.3682C15.2705 15.4658 15.1381 15.5205 15 15.5205C14.8619 15.5205 14.7295 15.4658 14.6318 15.3682C14.5342 15.2705 14.4795 15.1381 14.4795 15C14.4795 14.8619 14.5342 14.7295 14.6318 14.6318C14.7295 14.5342 14.8619 14.4795 15 14.4795ZM20 14.4795C20.1381 14.4795 20.2705 14.5342 20.3682 14.6318C20.4658 14.7295 20.5205 14.8619 20.5205 15C20.5205 15.1381 20.4658 15.2705 20.3682 15.3682C20.2705 15.4658 20.1381 15.5205 20 15.5205C19.8619 15.5205 19.7295 15.4658 19.6318 15.3682C19.5342 15.2705 19.4795 15.1381 19.4795 15C19.4795 14.8619 19.5342 14.7295 19.6318 14.6318C19.7295 14.5342 19.8619 14.4795 20 14.4795Z" fill="black" stroke="black" stroke-width="1.45833"/>
</svg>
