<svg width="35" height="35" viewBox="0 0 35 35" fill="none" xmlns="http://www.w3.org/2000/svg">
<path d="M11.375 13.125C11.8921 13.125 12.4041 13.0232 12.8818 12.8253C13.3595 12.6274 13.7936 12.3374 14.1592 11.9717C14.5249 11.6061 14.8149 11.172 15.0128 10.6943C15.2107 10.2166 15.3125 9.70458 15.3125 9.1875C15.3125 8.67042 15.2107 8.1584 15.0128 7.68068C14.8149 7.20296 14.5249 6.7689 14.1592 6.40327C13.7936 6.03764 13.3595 5.7476 12.8818 5.54972C12.4041 5.35185 11.8921 5.25 11.375 5.25C10.3307 5.25 9.32919 5.66484 8.59077 6.40327C7.85234 7.14169 7.4375 8.14321 7.4375 9.1875C7.4375 10.2318 7.85234 11.2333 8.59077 11.9717C9.32919 12.7102 10.3307 13.125 11.375 13.125ZM11.375 11.375C10.7948 11.375 10.2384 11.1445 9.8282 10.7343C9.41797 10.3241 9.1875 9.76766 9.1875 9.1875C9.1875 8.60734 9.41797 8.05094 9.8282 7.6407C10.2384 7.23047 10.7948 7 11.375 7C11.9552 7 12.5116 7.23047 12.9218 7.6407C13.332 8.05094 13.5625 8.60734 13.5625 9.1875C13.5625 9.76766 13.332 10.3241 12.9218 10.7343C12.5116 11.1445 11.9552 11.375 11.375 11.375ZM5.25 15.75C5.25 15.2859 5.43437 14.8408 5.76256 14.5126C6.09075 14.1844 6.53587 14 7 14H15.75C16.2141 14 16.6592 14.1844 16.9874 14.5126C17.3156 14.8408 17.5 15.2859 17.5 15.75V23.625C17.5 24.4293 17.3416 25.2258 17.0338 25.9689C16.726 26.7121 16.2748 27.3873 15.706 27.956C15.1373 28.5248 14.4621 28.976 13.7189 29.2838C12.9758 29.5916 12.1793 29.75 11.375 29.75C10.5707 29.75 9.77418 29.5916 9.03106 29.2838C8.28794 28.976 7.61273 28.5248 7.04397 27.956C6.47521 27.3873 6.02405 26.7121 5.71624 25.9689C5.40843 25.2258 5.25 24.4293 5.25 23.625V15.75ZM7 15.75V23.625C7 24.7853 7.46094 25.8981 8.28141 26.7186C9.10188 27.5391 10.2147 28 11.375 28C12.5353 28 13.6481 27.5391 14.4686 26.7186C15.2891 25.8981 15.75 24.7853 15.75 23.625V15.75H7ZM16.8455 10.7503C16.692 11.2896 16.4584 11.8028 16.1525 12.2728C16.8752 12.3568 17.5297 12.6578 18.0495 13.1128C18.1557 13.1198 18.2642 13.1238 18.375 13.125C18.9954 13.125 19.607 12.9783 20.16 12.697C20.7129 12.4158 21.1916 12.0078 21.557 11.5064C21.9223 11.005 22.164 10.4244 22.2624 9.81182C22.3608 9.19928 22.313 8.57216 22.123 7.98158C21.933 7.391 21.6061 6.85367 21.169 6.4134C20.732 5.97312 20.197 5.64236 19.6078 5.44807C19.0186 5.25378 18.3919 5.20146 17.7786 5.29538C17.1654 5.38929 16.583 5.62679 16.079 5.9885C16.415 6.48375 16.6758 7.035 16.8455 7.62475C17.1533 7.32361 17.5431 7.12002 17.9661 7.03948C18.3891 6.95894 18.8265 7.00504 19.2234 7.172C19.6204 7.33896 19.9592 7.61935 20.1974 7.97804C20.4357 8.33674 20.5628 8.75777 20.5628 9.18838C20.5628 9.61898 20.4357 10.04 20.1974 10.3987C19.9592 10.7574 19.6204 11.0378 19.2234 11.2048C18.8265 11.3717 18.3891 11.4178 17.9661 11.3373C17.5431 11.2567 17.1533 11.0514 16.8455 10.7503ZM16.6232 29.498C17.5378 29.771 18.5035 29.8264 19.4433 29.66C20.3831 29.4935 21.271 29.1097 22.0362 28.5392C22.8014 27.9687 23.4226 27.2272 23.8504 26.374C24.2781 25.5208 24.5006 24.5794 24.5 23.625V15.75C24.5 15.2859 24.3156 14.8408 23.9874 14.5126C23.6592 14.1844 23.2141 14 22.75 14H18.7827C19.0802 14.5145 19.2518 15.113 19.2518 15.75H22.7518V23.625C22.7519 24.2365 22.6238 24.8413 22.3758 25.4002C22.1278 25.9592 21.7654 26.4599 21.3119 26.8702C20.8585 27.2805 20.324 27.5911 19.7431 27.7821C19.1622 27.9731 18.5477 28.0402 17.9393 27.979C17.5648 28.5413 17.1273 29.0471 16.6268 29.4963M23.849 10.7503C23.6955 11.2896 23.4619 11.8028 23.156 12.2728C23.8787 12.3568 24.5333 12.6578 25.053 13.1128C25.1592 13.1198 25.2677 13.1238 25.3785 13.125C25.9989 13.125 26.6105 12.9783 27.1635 12.697C27.7164 12.4158 28.1951 12.0078 28.5605 11.5064C28.9258 11.005 29.1675 10.4244 29.2659 9.81182C29.3643 9.19928 29.3165 8.57216 29.1265 7.98158C28.9365 7.391 28.6096 6.85367 28.1725 6.4134C27.7355 5.97312 27.2005 5.64236 26.6113 5.44807C26.0222 5.25378 25.3954 5.20146 24.7822 5.29538C24.1689 5.38929 23.5865 5.62679 23.0825 5.9885C23.4185 6.48375 23.6793 7.035 23.849 7.62475C24.1568 7.32361 24.5466 7.12002 24.9696 7.03948C25.3927 6.95894 25.83 7.00504 26.2269 7.172C26.6239 7.33896 26.9627 7.61935 27.2009 7.97804C27.4392 8.33674 27.5663 8.75777 27.5663 9.18838C27.5663 9.61898 27.4392 10.04 27.2009 10.3987C26.9627 10.7574 26.6239 11.0378 26.2269 11.2048C25.83 11.3717 25.3927 11.4178 24.9696 11.3373C24.5466 11.2567 24.1568 11.0514 23.849 10.7503ZM23.6268 29.498C24.1844 29.6648 24.7677 29.7494 25.3768 29.7517C27.0012 29.7517 28.5591 29.1064 29.7078 27.9578C30.8564 26.8091 31.5017 25.2512 31.5017 23.6268V15.75C31.5017 15.2859 31.3174 14.8408 30.9892 14.5126C30.661 14.1844 30.2159 14 29.7517 14H25.7845C26.082 14.5145 26.2535 15.113 26.2535 15.75H29.7535V23.625C29.7536 24.2365 29.6256 24.8413 29.3776 25.4002C29.1296 25.9592 28.7671 26.4599 28.3137 26.8702C27.8602 27.2805 27.3258 27.5911 26.7449 27.7821C26.1639 27.9731 25.5494 28.0402 24.941 27.979C24.5665 28.5413 24.129 29.0471 23.6285 29.4963" fill="#00B816"/>
</svg>
