<svg width="35" height="35" viewBox="0 0 35 35" fill="none" xmlns="http://www.w3.org/2000/svg">
<path d="M17.5 24.7917C16.7265 24.7917 15.9846 24.4844 15.4376 23.9374C14.8907 23.3905 14.5834 22.6486 14.5834 21.875C14.5834 20.2563 15.8813 18.9584 17.5 18.9584C18.2736 18.9584 19.0155 19.2657 19.5624 19.8126C20.1094 20.3596 20.4167 21.1015 20.4167 21.875C20.4167 22.6486 20.1094 23.3905 19.5624 23.9374C19.0155 24.4844 18.2736 24.7917 17.5 24.7917ZM26.25 29.1667V14.5834H8.75004V29.1667H26.25ZM26.25 11.6667C27.0236 11.6667 27.7655 11.974 28.3124 12.521C28.8594 13.068 29.1667 13.8098 29.1667 14.5834V29.1667C29.1667 29.9403 28.8594 30.6821 28.3124 31.2291C27.7655 31.7761 27.0236 32.0834 26.25 32.0834H8.75004C7.97649 32.0834 7.23463 31.7761 6.68765 31.2291C6.14066 30.6821 5.83337 29.9403 5.83337 29.1667V14.5834C5.83337 12.9646 7.13129 11.6667 8.75004 11.6667H10.2084V8.75004C10.2084 6.81617 10.9766 4.96151 12.3441 3.59405C13.7115 2.2266 15.5662 1.45837 17.5 1.45837C18.4576 1.45837 19.4058 1.64698 20.2904 2.01342C21.1751 2.37986 21.9789 2.91696 22.656 3.59405C23.3331 4.27115 23.8702 5.07497 24.2367 5.95964C24.6031 6.84431 24.7917 7.79249 24.7917 8.75004V11.6667H26.25ZM17.5 4.37504C16.3397 4.37504 15.2269 4.83598 14.4064 5.65645C13.586 6.47692 13.125 7.58972 13.125 8.75004V11.6667H21.875V8.75004C21.875 7.58972 21.4141 6.47692 20.5936 5.65645C19.7732 4.83598 18.6604 4.37504 17.5 4.37504Z" fill="#7A00FF"/>
</svg>
